<svg width="1094" height="439" viewBox="0 0 1094 439" fill="none" xmlns="http://www.w3.org/2000/svg">
<path d="M23 14.7889L0 81.7889C0 81.7889 98 35.7889 121 99.7889L152 44.7889C152 44.7889 140 -31.2111 23 14.7889Z" fill="#8ED285"/>
<path d="M87 380.222L130 430.222C130 430.222 113 365.222 244 380.222L209 320.222C209 320.222 94 300.222 87 380.222Z" fill="#8ED285"/>
<path d="M981 30C981 30 1041 21 1011 152L1067 132C1067 132 1116 27 1039 0L981 30Z" fill="#8ED285"/>
<path d="M955 282C955 282 977 384 1094 370L1072 438C1072 438 960 450 925 348L955 282Z" fill="#8ED285"/>
</svg>
